<svg class="main-svg" xmlns="http://www.w3.org/2000/svg" xmlns:xlink="http://www.w3.org/1999/xlink" width="600" height="400" viewBox="0 0 600 400"><rect x="0" y="0" width="600" height="400" style="fill: rgb(255, 255, 255); fill-opacity: 1;"/><defs id="defs-46609f"><g class="clips"><clipPath id="clip46609fxyplot" class="plotclip"><rect width="529.9037620297463" height="342.9133858267717"/></clipPath><clipPath class="axesclip" id="clip46609fx"><rect x="66.15923009623796" y="0" width="529.9037620297463" height="400"/></clipPath><clipPath class="axesclip" id="clip46609fy"><rect x="0" y="23.543307086614167" width="600" height="342.9133858267717"/></clipPath><clipPath class="axesclip" id="clip46609fxy"><rect x="66.15923009623796" y="23.543307086614167" width="529.9037620297463" height="342.9133858267717"/></clipPath></g><g class="gradients"/></defs><g class="bglayer"/><g class="layer-below"><g class="imagelayer"/><g class="shapelayer"/></g><g class="cartesianlayer"><g class="subplot xy"><g class="layer-subplot"><g class="shapelayer"/><g class="imagelayer"/></g><g class="gridlayer"><g class="x"><path class="xgrid crisp" transform="translate(119.48923009623796,0)" d="M0,23.543307086614167v342.9133858267717" style="stroke: rgb(0, 0, 0); stroke-opacity: 0.1; stroke-width: 0.5px;"/><path class="xgrid crisp" transform="translate(179.94923009623795,0)" d="M0,23.543307086614167v342.9133858267717" style="stroke: rgb(0, 0, 0); stroke-opacity: 0.1; stroke-width: 0.5px;"/><path class="xgrid crisp" transform="translate(240.41923009623795,0)" d="M0,23.543307086614167v342.9133858267717" style="stroke: rgb(0, 0, 0); stroke-opacity: 0.1; stroke-width: 0.5px;"/><path class="xgrid crisp" transform="translate(300.87923009623796,0)" d="M0,23.543307086614167v342.9133858267717" style="stroke: rgb(0, 0, 0); stroke-opacity: 0.1; stroke-width: 0.5px;"/><path class="xgrid crisp" transform="translate(361.339230096238,0)" d="M0,23.543307086614167v342.9133858267717" style="stroke: rgb(0, 0, 0); stroke-opacity: 0.1; stroke-width: 0.5px;"/><path class="xgrid crisp" transform="translate(421.8092300962379,0)" d="M0,23.543307086614167v342.9133858267717" style="stroke: rgb(0, 0, 0); stroke-opacity: 0.1; stroke-width: 0.5px;"/><path class="xgrid crisp" transform="translate(482.26923009623795,0)" d="M0,23.543307086614167v342.9133858267717" style="stroke: rgb(0, 0, 0); stroke-opacity: 0.1; stroke-width: 0.5px;"/><path class="xgrid crisp" transform="translate(542.729230096238,0)" d="M0,23.543307086614167v342.9133858267717" style="stroke: rgb(0, 0, 0); stroke-opacity: 0.1; stroke-width: 0.5px;"/></g><g class="y"><path class="ygrid crisp" transform="translate(0,355.94330708661414)" d="M66.15923009623796,0h529.9037620297463" style="stroke: rgb(0, 0, 0); stroke-opacity: 0.1; stroke-width: 0.5px;"/><path class="ygrid crisp" transform="translate(0,285.24330708661415)" d="M66.15923009623796,0h529.9037620297463" style="stroke: rgb(0, 0, 0); stroke-opacity: 0.1; stroke-width: 0.5px;"/><path class="ygrid crisp" transform="translate(0,214.54330708661416)" d="M66.15923009623796,0h529.9037620297463" style="stroke: rgb(0, 0, 0); stroke-opacity: 0.1; stroke-width: 0.5px;"/><path class="ygrid crisp" transform="translate(0,143.83330708661418)" d="M66.15923009623796,0h529.9037620297463" style="stroke: rgb(0, 0, 0); stroke-opacity: 0.1; stroke-width: 0.5px;"/><path class="ygrid crisp" transform="translate(0,73.13330708661417)" d="M66.15923009623796,0h529.9037620297463" style="stroke: rgb(0, 0, 0); stroke-opacity: 0.1; stroke-width: 0.5px;"/></g></g><g class="zerolinelayer"/><path class="xlines-below"/><path class="ylines-below"/><g class="overlines-below"/><g class="xaxislayer-below"/><g class="yaxislayer-below"/><g class="overaxes-below"/><g class="plot" transform="translate(66.15923009623796, 23.543307086614167)" clip-path="url('#clip46609fxyplot')"><g class="scatterlayer mlayer"><g class="trace scatter traceaa8ec8" style="stroke-miterlimit: 2;"><g class="fills"><g><path class="js-fill" d="M29.15,332.4L29.15,332.4L29.15,9.71L29.15,332.4L77.52,332.4L77.52,9.71L29.15,9.71L29.15,9.71" style="fill: rgb(0, 154, 250); fill-opacity: 1; stroke-width: 0;"/></g></g><g class="errorbars"/><g class="lines"><path class="js-line" d="M29.15,9.71L29.15,332.4L77.52,332.4L77.52,9.71L29.15,9.71L29.15,9.71" style="vector-effect: non-scaling-stroke; fill: none; stroke: rgb(0, 0, 0); stroke-opacity: 1; stroke-width: 1px; opacity: 1;"/></g><g class="points"/><g class="text"/></g><g class="trace scatter trace18f88b" style="stroke-miterlimit: 2;"><g class="fills"><g><path class="js-fill" d="M89.61,332.4L89.61,332.4L89.61,324.4L89.61,332.4L137.98,332.4L137.98,324.4L89.61,324.4L89.61,324.4" style="fill: rgb(0, 154, 250); fill-opacity: 1; stroke-width: 0;"/></g></g><g class="errorbars"/><g class="lines"><path class="js-line" d="M89.61,324.4L89.61,332.4L137.98,332.4L137.98,324.4L89.61,324.4L89.61,324.4" style="vector-effect: non-scaling-stroke; fill: none; stroke: rgb(0, 0, 0); stroke-opacity: 1; stroke-width: 1px; opacity: 1;"/></g><g class="points"/><g class="text"/></g><g class="trace scatter trace40f6a9" style="stroke-miterlimit: 2;"><g class="fills"><g><path class="js-fill" d="M150.07,332.4L150.07,332.4L150.07,320.67L150.07,332.4L198.44,332.4L198.44,320.67L150.07,320.67L150.07,320.67" style="fill: rgb(0, 154, 250); fill-opacity: 1; stroke-width: 0;"/></g></g><g class="errorbars"/><g class="lines"><path class="js-line" d="M150.07,320.67L150.07,332.4L198.44,332.4L198.44,320.67L150.07,320.67L150.07,320.67" style="vector-effect: non-scaling-stroke; fill: none; stroke: rgb(0, 0, 0); stroke-opacity: 1; stroke-width: 1px; opacity: 1;"/></g><g class="points"/><g class="text"/></g><g class="trace scatter trace51db00" style="stroke-miterlimit: 2;"><g class="fills"><g><path class="js-fill" d="M210.54,332.4L210.54,332.4L210.54,239.58L210.54,332.4L258.91,332.4L258.91,239.58L210.54,239.58L210.54,239.58" style="fill: rgb(0, 154, 250); fill-opacity: 1; stroke-width: 0;"/></g></g><g class="errorbars"/><g class="lines"><path class="js-line" d="M210.54,239.58L210.54,332.4L258.91,332.4L258.91,239.58L210.54,239.58L210.54,239.58" style="vector-effect: non-scaling-stroke; fill: none; stroke: rgb(0, 0, 0); stroke-opacity: 1; stroke-width: 1px; opacity: 1;"/></g><g class="points"/><g class="text"/></g><g class="trace scatter trace0936a4" style="stroke-miterlimit: 2;"><g class="fills"><g><path class="js-fill" d="M271,332.4L271,332.4L271,325.54L271,332.4L319.37,332.4L319.37,325.54L271,325.54L271,325.54" style="fill: rgb(0, 154, 250); fill-opacity: 1; stroke-width: 0;"/></g></g><g class="errorbars"/><g class="lines"><path class="js-line" d="M271,325.54L271,332.4L319.37,332.4L319.37,325.54L271,325.54L271,325.54" style="vector-effect: non-scaling-stroke; fill: none; stroke: rgb(0, 0, 0); stroke-opacity: 1; stroke-width: 1px; opacity: 1;"/></g><g class="points"/><g class="text"/></g><g class="trace scatter trace2779db" style="stroke-miterlimit: 2;"><g class="fills"><g><path class="js-fill" d="M331.46,332.4L331.46,332.4L331.46,332.06L331.46,332.4L379.83,332.4L379.83,332.06L331.46,332.06L331.46,332.06" style="fill: rgb(0, 154, 250); fill-opacity: 1; stroke-width: 0;"/></g></g><g class="errorbars"/><g class="lines"><path class="js-line" d="M331.46,332.06L331.46,332.4L379.83,332.4L379.83,332.06L331.46,332.06L331.46,332.06" style="vector-effect: non-scaling-stroke; fill: none; stroke: rgb(0, 0, 0); stroke-opacity: 1; stroke-width: 1px; opacity: 1;"/></g><g class="points"/><g class="text"/></g><g class="trace scatter trace07ad80" style="stroke-miterlimit: 2;"><g class="fills"><g><path class="js-fill" d="M391.92,332.4L391.92,332.4L391.92,324.59L391.92,332.4L440.29,332.4L440.29,324.59L391.92,324.59L391.92,324.59" style="fill: rgb(0, 154, 250); fill-opacity: 1; stroke-width: 0;"/></g></g><g class="errorbars"/><g class="lines"><path class="js-line" d="M391.92,324.59L391.92,332.4L440.29,332.4L440.29,324.59L391.92,324.59L391.92,324.59" style="vector-effect: non-scaling-stroke; fill: none; stroke: rgb(0, 0, 0); stroke-opacity: 1; stroke-width: 1px; opacity: 1;"/></g><g class="points"/><g class="text"/></g><g class="trace scatter tracef1646b" style="stroke-miterlimit: 2;"><g class="fills"><g><path class="js-fill" d="M452.39,332.4L452.39,332.4L452.39,333.21L452.39,332.4L500.76,332.4L500.76,333.21L452.39,333.21L452.39,333.21" style="fill: rgb(0, 154, 250); fill-opacity: 1; stroke-width: 0;"/></g></g><g class="errorbars"/><g class="lines"><path class="js-line" d="M452.39,333.21L452.39,332.4L500.76,332.4L500.76,333.21L452.39,333.21L452.39,333.21" style="vector-effect: non-scaling-stroke; fill: none; stroke: rgb(0, 0, 0); stroke-opacity: 1; stroke-width: 1px; opacity: 1;"/></g><g class="points"/><g class="text"/></g></g></g><g class="overplot"/><path class="xlines-above crisp" d="M65.15923009623796,366.95669291338584H596.0629921259842" style="fill: none; stroke-width: 1px; stroke: rgb(0, 0, 0); stroke-opacity: 1;"/><path class="ylines-above crisp" d="M65.65923009623796,23.543307086614167V366.45669291338584" style="fill: none; stroke-width: 1px; stroke: rgb(0, 0, 0); stroke-opacity: 1;"/><g class="overlines-above"/><g class="xaxislayer-above"><path class="xtick ticks crisp" d="M0,366.45669291338584v-5" transform="translate(119.48923009623796,0)" style="stroke: rgb(0, 0, 0); stroke-opacity: 1; stroke-width: 1px;"/><path class="xtick ticks crisp" d="M0,366.45669291338584v-5" transform="translate(179.94923009623795,0)" style="stroke: rgb(0, 0, 0); stroke-opacity: 1; stroke-width: 1px;"/><path class="xtick ticks crisp" d="M0,366.45669291338584v-5" transform="translate(240.41923009623795,0)" style="stroke: rgb(0, 0, 0); stroke-opacity: 1; stroke-width: 1px;"/><path class="xtick ticks crisp" d="M0,366.45669291338584v-5" transform="translate(300.87923009623796,0)" style="stroke: rgb(0, 0, 0); stroke-opacity: 1; stroke-width: 1px;"/><path class="xtick ticks crisp" d="M0,366.45669291338584v-5" transform="translate(361.339230096238,0)" style="stroke: rgb(0, 0, 0); stroke-opacity: 1; stroke-width: 1px;"/><path class="xtick ticks crisp" d="M0,366.45669291338584v-5" transform="translate(421.8092300962379,0)" style="stroke: rgb(0, 0, 0); stroke-opacity: 1; stroke-width: 1px;"/><path class="xtick ticks crisp" d="M0,366.45669291338584v-5" transform="translate(482.26923009623795,0)" style="stroke: rgb(0, 0, 0); stroke-opacity: 1; stroke-width: 1px;"/><path class="xtick ticks crisp" d="M0,366.45669291338584v-5" transform="translate(542.729230096238,0)" style="stroke: rgb(0, 0, 0); stroke-opacity: 1; stroke-width: 1px;"/><g class="xtick"><text text-anchor="middle" x="0" y="380.6566929133858" transform="translate(119.48923009623796,0)" style="font-family: sans-serif; font-size: 11px; fill: rgb(0, 0, 0); fill-opacity: 1; white-space: pre;">k_growth</text></g><g class="xtick"><text text-anchor="middle" x="0" y="380.6566929133858" transform="translate(179.94923009623795,0)" style="font-family: sans-serif; font-size: 11px; fill: rgb(0, 0, 0); fill-opacity: 1; white-space: pre;">N_max</text></g><g class="xtick"><text text-anchor="middle" x="0" y="380.6566929133858" transform="translate(240.41923009623795,0)" style="font-family: sans-serif; font-size: 11px; fill: rgb(0, 0, 0); fill-opacity: 1; white-space: pre;">k_tsl</text></g><g class="xtick"><text text-anchor="middle" x="0" y="380.6566929133858" transform="translate(300.87923009623796,0)" style="font-family: sans-serif; font-size: 11px; fill: rgb(0, 0, 0); fill-opacity: 1; white-space: pre;">tsc</text></g><g class="xtick"><text text-anchor="middle" x="0" y="380.6566929133858" transform="translate(361.339230096238,0)" style="font-family: sans-serif; font-size: 11px; fill: rgb(0, 0, 0); fill-opacity: 1; white-space: pre;">k_rna_deg</text></g><g class="xtick"><text text-anchor="middle" x="0" y="380.6566929133858" transform="translate(421.8092300962379,0)" style="font-family: sans-serif; font-size: 11px; fill: rgb(0, 0, 0); fill-opacity: 1; white-space: pre;">k_pro_deg</text></g><g class="xtick"><text text-anchor="middle" x="0" y="380.6566929133858" transform="translate(482.26923009623795,0)" style="font-family: sans-serif; font-size: 11px; fill: rgb(0, 0, 0); fill-opacity: 1; white-space: pre;">V_max</text></g><g class="xtick"><text text-anchor="middle" x="0" y="380.6566929133858" transform="translate(542.729230096238,0)" style="font-family: sans-serif; font-size: 11px; fill: rgb(0, 0, 0); fill-opacity: 1; white-space: pre;">k_m</text></g></g><g class="yaxislayer-above"><path class="ytick ticks crisp" d="M66.15923009623796,0h5" transform="translate(0,355.94330708661414)" style="stroke: rgb(0, 0, 0); stroke-opacity: 1; stroke-width: 1px;"/><path class="ytick ticks crisp" d="M66.15923009623796,0h5" transform="translate(0,285.24330708661415)" style="stroke: rgb(0, 0, 0); stroke-opacity: 1; stroke-width: 1px;"/><path class="ytick ticks crisp" d="M66.15923009623796,0h5" transform="translate(0,214.54330708661416)" style="stroke: rgb(0, 0, 0); stroke-opacity: 1; stroke-width: 1px;"/><path class="ytick ticks crisp" d="M66.15923009623796,0h5" transform="translate(0,143.83330708661418)" style="stroke: rgb(0, 0, 0); stroke-opacity: 1; stroke-width: 1px;"/><path class="ytick ticks crisp" d="M66.15923009623796,0h5" transform="translate(0,73.13330708661417)" style="stroke: rgb(0, 0, 0); stroke-opacity: 1; stroke-width: 1px;"/><g class="ytick"><text text-anchor="end" x="62.95923009623796" y="3.8499999999999996" transform="translate(0,355.94330708661414)" style="font-family: sans-serif; font-size: 11px; fill: rgb(0, 0, 0); fill-opacity: 1; white-space: pre;">0.00000</text></g><g class="ytick"><text text-anchor="end" x="62.95923009623796" y="3.8499999999999996" transform="translate(0,285.24330708661415)" style="font-family: sans-serif; font-size: 11px; fill: rgb(0, 0, 0); fill-opacity: 1; white-space: pre;">0.00005</text></g><g class="ytick"><text text-anchor="end" x="62.95923009623796" y="3.8499999999999996" transform="translate(0,214.54330708661416)" style="font-family: sans-serif; font-size: 11px; fill: rgb(0, 0, 0); fill-opacity: 1; white-space: pre;">0.00010</text></g><g class="ytick"><text text-anchor="end" x="62.95923009623796" y="3.8499999999999996" transform="translate(0,143.83330708661418)" style="font-family: sans-serif; font-size: 11px; fill: rgb(0, 0, 0); fill-opacity: 1; white-space: pre;">0.00015</text></g><g class="ytick"><text text-anchor="end" x="62.95923009623796" y="3.8499999999999996" transform="translate(0,73.13330708661417)" style="font-family: sans-serif; font-size: 11px; fill: rgb(0, 0, 0); fill-opacity: 1; white-space: pre;">0.00020</text></g></g><g class="overaxes-above"/></g></g><g class="polarlayer"/><g class="ternarylayer"/><g class="geolayer"/><g class="funnelarealayer"/><g class="pielayer"/><g class="treemaplayer"/><g class="sunburstlayer"/><g class="glimages"/><defs id="topdefs-46609f"><g class="clips"/></defs><g class="layer-above"><g class="imagelayer"/><g class="shapelayer"/></g><g class="infolayer"><g class="g-gtitle"/><g class="g-xtitle"/><g class="g-ytitle"/></g></svg>