<svg class="main-svg" xmlns="http://www.w3.org/2000/svg" xmlns:xlink="http://www.w3.org/1999/xlink" width="600" height="400" viewBox="0 0 600 400"><rect x="0" y="0" width="600" height="400" style="fill: rgb(255, 255, 255); fill-opacity: 1;"/><defs id="defs-80d3e5"><g class="clips"><clipPath id="clip80d3e5xyplot" class="plotclip"><rect width="547.681539807524" height="342.9133858267717"/></clipPath><clipPath class="axesclip" id="clip80d3e5x"><rect x="48.381452318460184" y="0" width="547.681539807524" height="400"/></clipPath><clipPath class="axesclip" id="clip80d3e5y"><rect x="0" y="23.543307086614167" width="600" height="342.9133858267717"/></clipPath><clipPath class="axesclip" id="clip80d3e5xy"><rect x="48.381452318460184" y="23.543307086614167" width="547.681539807524" height="342.9133858267717"/></clipPath></g><g class="gradients"/></defs><g class="bglayer"/><g class="layer-below"><g class="imagelayer"/><g class="shapelayer"/></g><g class="cartesianlayer"><g class="subplot xy"><g class="layer-subplot"><g class="shapelayer"/><g class="imagelayer"/></g><g class="gridlayer"><g class="x"><path class="xgrid crisp" transform="translate(103.50145231846018,0)" d="M0,23.543307086614167v342.9133858267717" style="stroke: rgb(0, 0, 0); stroke-opacity: 0.1; stroke-width: 0.5px;"/><path class="xgrid crisp" transform="translate(165.99145231846018,0)" d="M0,23.543307086614167v342.9133858267717" style="stroke: rgb(0, 0, 0); stroke-opacity: 0.1; stroke-width: 0.5px;"/><path class="xgrid crisp" transform="translate(228.48145231846019,0)" d="M0,23.543307086614167v342.9133858267717" style="stroke: rgb(0, 0, 0); stroke-opacity: 0.1; stroke-width: 0.5px;"/><path class="xgrid crisp" transform="translate(290.9714523184602,0)" d="M0,23.543307086614167v342.9133858267717" style="stroke: rgb(0, 0, 0); stroke-opacity: 0.1; stroke-width: 0.5px;"/><path class="xgrid crisp" transform="translate(353.47145231846014,0)" d="M0,23.543307086614167v342.9133858267717" style="stroke: rgb(0, 0, 0); stroke-opacity: 0.1; stroke-width: 0.5px;"/><path class="xgrid crisp" transform="translate(415.96145231846015,0)" d="M0,23.543307086614167v342.9133858267717" style="stroke: rgb(0, 0, 0); stroke-opacity: 0.1; stroke-width: 0.5px;"/><path class="xgrid crisp" transform="translate(478.45145231846016,0)" d="M0,23.543307086614167v342.9133858267717" style="stroke: rgb(0, 0, 0); stroke-opacity: 0.1; stroke-width: 0.5px;"/><path class="xgrid crisp" transform="translate(540.9414523184602,0)" d="M0,23.543307086614167v342.9133858267717" style="stroke: rgb(0, 0, 0); stroke-opacity: 0.1; stroke-width: 0.5px;"/></g><g class="y"><path class="ygrid crisp" transform="translate(0,356.75330708661414)" d="M48.381452318460184,0h547.681539807524" style="stroke: rgb(0, 0, 0); stroke-opacity: 0.1; stroke-width: 0.5px;"/><path class="ygrid crisp" transform="translate(0,288.3433070866142)" d="M48.381452318460184,0h547.681539807524" style="stroke: rgb(0, 0, 0); stroke-opacity: 0.1; stroke-width: 0.5px;"/><path class="ygrid crisp" transform="translate(0,219.93330708661415)" d="M48.381452318460184,0h547.681539807524" style="stroke: rgb(0, 0, 0); stroke-opacity: 0.1; stroke-width: 0.5px;"/><path class="ygrid crisp" transform="translate(0,151.52330708661418)" d="M48.381452318460184,0h547.681539807524" style="stroke: rgb(0, 0, 0); stroke-opacity: 0.1; stroke-width: 0.5px;"/><path class="ygrid crisp" transform="translate(0,83.11330708661417)" d="M48.381452318460184,0h547.681539807524" style="stroke: rgb(0, 0, 0); stroke-opacity: 0.1; stroke-width: 0.5px;"/></g></g><g class="zerolinelayer"/><path class="xlines-below"/><path class="ylines-below"/><g class="overlines-below"/><g class="xaxislayer-below"/><g class="yaxislayer-below"/><g class="overaxes-below"/><g class="plot" transform="translate(48.381452318460184, 23.543307086614167)" clip-path="url('#clip80d3e5xyplot')"><g class="scatterlayer mlayer"><g class="trace scatter tracea75f0a" style="stroke-miterlimit: 2;"><g class="fills"><g><path class="js-fill" d="M30.12,333.21L30.12,333.21L30.12,324.26L30.12,333.21L80.12,333.21L80.12,324.26L30.12,324.26L30.12,324.26" style="fill: rgb(0, 154, 250); fill-opacity: 1; stroke-width: 0;"/></g></g><g class="errorbars"/><g class="lines"><path class="js-line" d="M30.12,324.26L30.12,333.21L80.12,333.21L80.12,324.26L30.12,324.26L30.12,324.26" style="vector-effect: non-scaling-stroke; fill: none; stroke: rgb(0, 0, 0); stroke-opacity: 1; stroke-width: 1px; opacity: 1;"/></g><g class="points"/><g class="text"/></g><g class="trace scatter trace375e6c" style="stroke-miterlimit: 2;"><g class="fills"><g><path class="js-fill" d="M92.62,333.21L92.62,333.21L92.62,332.75L92.62,333.21L142.61,333.21L142.61,332.75L92.62,332.75L92.62,332.75" style="fill: rgb(0, 154, 250); fill-opacity: 1; stroke-width: 0;"/></g></g><g class="errorbars"/><g class="lines"><path class="js-line" d="M92.62,332.75L92.62,333.21L142.61,333.21L142.61,332.75L92.62,332.75L92.62,332.75" style="vector-effect: non-scaling-stroke; fill: none; stroke: rgb(0, 0, 0); stroke-opacity: 1; stroke-width: 1px; opacity: 1;"/></g><g class="points"/><g class="text"/></g><g class="trace scatter trace940c34" style="stroke-miterlimit: 2;"><g class="fills"><g><path class="js-fill" d="M155.11,333.21L155.11,333.21L155.11,332.26L155.11,333.21L205.1,333.21L205.1,332.26L155.11,332.26L155.11,332.26" style="fill: rgb(0, 154, 250); fill-opacity: 1; stroke-width: 0;"/></g></g><g class="errorbars"/><g class="lines"><path class="js-line" d="M155.11,332.26L155.11,333.21L205.1,333.21L205.1,332.26L155.11,332.26L155.11,332.26" style="vector-effect: non-scaling-stroke; fill: none; stroke: rgb(0, 0, 0); stroke-opacity: 1; stroke-width: 1px; opacity: 1;"/></g><g class="points"/><g class="text"/></g><g class="trace scatter trace327c1e" style="stroke-miterlimit: 2;"><g class="fills"><g><path class="js-fill" d="M217.6,333.21L217.6,333.21L217.6,9.71L217.6,333.21L267.59,333.21L267.59,9.71L217.6,9.71L217.6,9.71" style="fill: rgb(0, 154, 250); fill-opacity: 1; stroke-width: 0;"/></g></g><g class="errorbars"/><g class="lines"><path class="js-line" d="M217.6,9.71L217.6,333.21L267.59,333.21L267.59,9.71L217.6,9.71L217.6,9.71" style="vector-effect: non-scaling-stroke; fill: none; stroke: rgb(0, 0, 0); stroke-opacity: 1; stroke-width: 1px; opacity: 1;"/></g><g class="points"/><g class="text"/></g><g class="trace scatter trace57e635" style="stroke-miterlimit: 2;"><g class="fills"><g><path class="js-fill" d="M280.09,333.21L280.09,333.21L280.09,332.59L280.09,333.21L330.08,333.21L330.08,332.59L280.09,332.59L280.09,332.59" style="fill: rgb(0, 154, 250); fill-opacity: 1; stroke-width: 0;"/></g></g><g class="errorbars"/><g class="lines"><path class="js-line" d="M280.09,332.59L280.09,333.21L330.08,333.21L330.08,332.59L280.09,332.59L280.09,332.59" style="vector-effect: non-scaling-stroke; fill: none; stroke: rgb(0, 0, 0); stroke-opacity: 1; stroke-width: 1px; opacity: 1;"/></g><g class="points"/><g class="text"/></g><g class="trace scatter trace1f853c" style="stroke-miterlimit: 2;"><g class="fills"><g><path class="js-fill" d="M342.58,333.21L342.58,333.21L342.58,333.17L392.57,333.21L342.58,333.17" style="fill: rgb(0, 154, 250); fill-opacity: 1; stroke-width: 0;"/></g></g><g class="errorbars"/><g class="lines"><path class="js-line" d="M342.58,333.17L392.57,333.21L342.58,333.17" style="vector-effect: non-scaling-stroke; fill: none; stroke: rgb(0, 0, 0); stroke-opacity: 1; stroke-width: 1px; opacity: 1;"/></g><g class="points"/><g class="text"/></g><g class="trace scatter tracee4c7d7" style="stroke-miterlimit: 2;"><g class="fills"><g><path class="js-fill" d="M405.07,333.21L405.07,333.21L405.07,275.21L405.07,333.21L455.07,333.21L455.07,275.21L405.07,275.21L405.07,275.21" style="fill: rgb(0, 154, 250); fill-opacity: 1; stroke-width: 0;"/></g></g><g class="errorbars"/><g class="lines"><path class="js-line" d="M405.07,275.21L405.07,333.21L455.07,333.21L455.07,275.21L405.07,275.21L405.07,275.21" style="vector-effect: non-scaling-stroke; fill: none; stroke: rgb(0, 0, 0); stroke-opacity: 1; stroke-width: 1px; opacity: 1;"/></g><g class="points"/><g class="text"/></g><g class="trace scatter tracefef480" style="stroke-miterlimit: 2;"><g class="fills"><g><path class="js-fill" d="M467.56,333.21L467.56,333.21L467.56,198.92L467.56,333.21L517.56,333.21L517.56,198.92L467.56,198.92L467.56,198.92" style="fill: rgb(0, 154, 250); fill-opacity: 1; stroke-width: 0;"/></g></g><g class="errorbars"/><g class="lines"><path class="js-line" d="M467.56,198.92L467.56,333.21L517.56,333.21L517.56,198.92L467.56,198.92L467.56,198.92" style="vector-effect: non-scaling-stroke; fill: none; stroke: rgb(0, 0, 0); stroke-opacity: 1; stroke-width: 1px; opacity: 1;"/></g><g class="points"/><g class="text"/></g></g></g><g class="overplot"/><path class="xlines-above crisp" d="M47.381452318460184,366.95669291338584H596.0629921259842" style="fill: none; stroke-width: 1px; stroke: rgb(0, 0, 0); stroke-opacity: 1;"/><path class="ylines-above crisp" d="M47.881452318460184,23.543307086614167V366.45669291338584" style="fill: none; stroke-width: 1px; stroke: rgb(0, 0, 0); stroke-opacity: 1;"/><g class="overlines-above"/><g class="xaxislayer-above"><path class="xtick ticks crisp" d="M0,366.45669291338584v-5" transform="translate(103.50145231846018,0)" style="stroke: rgb(0, 0, 0); stroke-opacity: 1; stroke-width: 1px;"/><path class="xtick ticks crisp" d="M0,366.45669291338584v-5" transform="translate(165.99145231846018,0)" style="stroke: rgb(0, 0, 0); stroke-opacity: 1; stroke-width: 1px;"/><path class="xtick ticks crisp" d="M0,366.45669291338584v-5" transform="translate(228.48145231846019,0)" style="stroke: rgb(0, 0, 0); stroke-opacity: 1; stroke-width: 1px;"/><path class="xtick ticks crisp" d="M0,366.45669291338584v-5" transform="translate(290.9714523184602,0)" style="stroke: rgb(0, 0, 0); stroke-opacity: 1; stroke-width: 1px;"/><path class="xtick ticks crisp" d="M0,366.45669291338584v-5" transform="translate(353.47145231846014,0)" style="stroke: rgb(0, 0, 0); stroke-opacity: 1; stroke-width: 1px;"/><path class="xtick ticks crisp" d="M0,366.45669291338584v-5" transform="translate(415.96145231846015,0)" style="stroke: rgb(0, 0, 0); stroke-opacity: 1; stroke-width: 1px;"/><path class="xtick ticks crisp" d="M0,366.45669291338584v-5" transform="translate(478.45145231846016,0)" style="stroke: rgb(0, 0, 0); stroke-opacity: 1; stroke-width: 1px;"/><path class="xtick ticks crisp" d="M0,366.45669291338584v-5" transform="translate(540.9414523184602,0)" style="stroke: rgb(0, 0, 0); stroke-opacity: 1; stroke-width: 1px;"/><g class="xtick"><text text-anchor="middle" x="0" y="380.6566929133858" transform="translate(103.50145231846018,0)" style="font-family: sans-serif; font-size: 11px; fill: rgb(0, 0, 0); fill-opacity: 1; white-space: pre;">k_growth</text></g><g class="xtick"><text text-anchor="middle" x="0" y="380.6566929133858" transform="translate(165.99145231846018,0)" style="font-family: sans-serif; font-size: 11px; fill: rgb(0, 0, 0); fill-opacity: 1; white-space: pre;">N_max</text></g><g class="xtick"><text text-anchor="middle" x="0" y="380.6566929133858" transform="translate(228.48145231846019,0)" style="font-family: sans-serif; font-size: 11px; fill: rgb(0, 0, 0); fill-opacity: 1; white-space: pre;">k_tsl</text></g><g class="xtick"><text text-anchor="middle" x="0" y="380.6566929133858" transform="translate(290.9714523184602,0)" style="font-family: sans-serif; font-size: 11px; fill: rgb(0, 0, 0); fill-opacity: 1; white-space: pre;">tsc</text></g><g class="xtick"><text text-anchor="middle" x="0" y="380.6566929133858" transform="translate(353.47145231846014,0)" style="font-family: sans-serif; font-size: 11px; fill: rgb(0, 0, 0); fill-opacity: 1; white-space: pre;">k_rna_deg</text></g><g class="xtick"><text text-anchor="middle" x="0" y="380.6566929133858" transform="translate(415.96145231846015,0)" style="font-family: sans-serif; font-size: 11px; fill: rgb(0, 0, 0); fill-opacity: 1; white-space: pre;">k_pro_deg</text></g><g class="xtick"><text text-anchor="middle" x="0" y="380.6566929133858" transform="translate(478.45145231846016,0)" style="font-family: sans-serif; font-size: 11px; fill: rgb(0, 0, 0); fill-opacity: 1; white-space: pre;">V_max</text></g><g class="xtick"><text text-anchor="middle" x="0" y="380.6566929133858" transform="translate(540.9414523184602,0)" style="font-family: sans-serif; font-size: 11px; fill: rgb(0, 0, 0); fill-opacity: 1; white-space: pre;">k_m</text></g></g><g class="yaxislayer-above"><path class="ytick ticks crisp" d="M48.381452318460184,0h5" transform="translate(0,356.75330708661414)" style="stroke: rgb(0, 0, 0); stroke-opacity: 1; stroke-width: 1px;"/><path class="ytick ticks crisp" d="M48.381452318460184,0h5" transform="translate(0,288.3433070866142)" style="stroke: rgb(0, 0, 0); stroke-opacity: 1; stroke-width: 1px;"/><path class="ytick ticks crisp" d="M48.381452318460184,0h5" transform="translate(0,219.93330708661415)" style="stroke: rgb(0, 0, 0); stroke-opacity: 1; stroke-width: 1px;"/><path class="ytick ticks crisp" d="M48.381452318460184,0h5" transform="translate(0,151.52330708661418)" style="stroke: rgb(0, 0, 0); stroke-opacity: 1; stroke-width: 1px;"/><path class="ytick ticks crisp" d="M48.381452318460184,0h5" transform="translate(0,83.11330708661417)" style="stroke: rgb(0, 0, 0); stroke-opacity: 1; stroke-width: 1px;"/><g class="ytick"><text text-anchor="end" x="45.18145231846018" y="3.8499999999999996" transform="translate(0,356.75330708661414)" style="font-family: sans-serif; font-size: 11px; fill: rgb(0, 0, 0); fill-opacity: 1; white-space: pre;">0.000</text></g><g class="ytick"><text text-anchor="end" x="45.18145231846018" y="3.8499999999999996" transform="translate(0,288.3433070866142)" style="font-family: sans-serif; font-size: 11px; fill: rgb(0, 0, 0); fill-opacity: 1; white-space: pre;">0.002</text></g><g class="ytick"><text text-anchor="end" x="45.18145231846018" y="3.8499999999999996" transform="translate(0,219.93330708661415)" style="font-family: sans-serif; font-size: 11px; fill: rgb(0, 0, 0); fill-opacity: 1; white-space: pre;">0.004</text></g><g class="ytick"><text text-anchor="end" x="45.18145231846018" y="3.8499999999999996" transform="translate(0,151.52330708661418)" style="font-family: sans-serif; font-size: 11px; fill: rgb(0, 0, 0); fill-opacity: 1; white-space: pre;">0.006</text></g><g class="ytick"><text text-anchor="end" x="45.18145231846018" y="3.8499999999999996" transform="translate(0,83.11330708661417)" style="font-family: sans-serif; font-size: 11px; fill: rgb(0, 0, 0); fill-opacity: 1; white-space: pre;">0.008</text></g></g><g class="overaxes-above"/></g></g><g class="polarlayer"/><g class="ternarylayer"/><g class="geolayer"/><g class="funnelarealayer"/><g class="pielayer"/><g class="treemaplayer"/><g class="sunburstlayer"/><g class="glimages"/><defs id="topdefs-80d3e5"><g class="clips"/></defs><g class="layer-above"><g class="imagelayer"/><g class="shapelayer"/></g><g class="infolayer"><g class="g-gtitle"/><g class="g-xtitle"/><g class="g-ytitle"/></g></svg>